<?xml version="1.0"?>
<svg version="1.1" xmlns="http://www.w3.org/2000/svg" width="200" height="75" style=""><path fill="#f2b022" d="M15.73828125,47.53125q0.0703125-1.8984375,0.123046875-3.890625t0.099609375-3.931640625t0.0703125-3.767578125t0.0234375-3.41015625q0.0234375-0.31640625,0.55078125-0.50390625t1.259765625-0.275390625t1.546875-0.111328125t1.447265625-0.0234375q0.140625,0,0.5859375-0.01171875l0.22265625,0q0.33984375,0,0.71484375,0.0234375q0.4921875,0.03515625,0.861328125,0.15234375t0.369140625,0.33984375q0,0.1640625-0.12890625,0.263671875t-0.298828125,0.146484375t-0.3515625,0.05859375t-0.251953125,0.01171875q-1.1015625,0-2.1796875-0.03515625q-0.29296875-0.01171875-0.59765625-0.01171875q-0.796875,0-1.6171875,0.0703125q0.046875,0.140625,0.076171875,0.849609375t0.029296875,1.599609375t-0.01171875,1.740234375t0,1.306640625l0,3.046875q0.36328125-0.0234375,0.71484375-0.0234375l0.703125,0l0.46875-0.0234375q0.234375-0.01171875,0.4921875-0.01171875q0.26953125,0,0.55078125,0.01171875q0.5625,0.0234375,1.025390625,0.134765625t0.462890625,0.392578125q0,0.2109375-0.17578125,0.310546875t-0.392578125,0.146484375t-0.41015625,0.046875l-0.216796875,0q-0.66796875,0-1.388671875-0.046875t-1.341796875-0.046875q-0.1171875,0.046875-0.251953125,0.03515625t-0.240234375-0.01171875q0,1.7578125-0.03515625,3.498046875t-0.08203125,3.462890625q0,0.33984375-0.427734375,0.4453125t-0.814453125,0.10546875q-0.43359375,0-0.685546875-0.10546875t-0.357421875-0.345703125t-0.12890625-0.638671875q-0.01171875-0.22265625-0.0234375-0.4921875q0-0.22265625,0.01171875-0.48046875z M24.8164453125,44.09765625q0-0.234375,0.052734375-0.62109375t0.123046875-0.767578125t0.1640625-0.708984375t0.22265625-0.421875q0.09375-0.09375,0.322265625-0.1875t0.48046875-0.134765625t0.46875,0.03515625t0.263671875,0.310546875q-0.1640625,0.2109375-0.298828125,0.720703125t-0.205078125,1.130859375q-0.05859375,0.52734375-0.05859375,1.08984375l0,0.19921875q0.01171875,0.65625,0.1171875,1.20703125t0.322265625,0.908203125t0.603515625,0.357421875q0.8203125,0,1.5-0.755859375t1.20703125-1.845703125t0.92578125-2.314453125t0.6796875-2.138671875q0.0703125-0.26953125,0.333984375-0.36328125t0.568359375-0.064453125t0.544921875,0.146484375t0.287109375,0.28125q-0.234375,1.96875-0.369140625,3.9375t-0.134765625,3.9609375q0,0.38671875,0.03515625,0.708984375t-0.03515625,0.55078125t-0.310546875,0.36328125t-0.767578125,0.134765625q-0.1171875,0-0.298828125-0.0234375t-0.375-0.076171875t-0.328125-0.158203125t-0.134765625-0.24609375q0-0.8671875,0.064453125-1.78125t0.181640625-1.76953125q-0.31640625,0.45703125-0.697265625,0.908203125t-0.837890625,0.814453125t-0.984375,0.580078125t-1.13671875,0.216796875q-0.8671875,0-1.365234375-0.41015625t-0.75-1.025390625t-0.31640625-1.341796875t-0.064453125-1.40625z M35.839921875,41.84765625q0-0.48046875,0.169921875-0.80859375t0.720703125-0.328125q0.2109375,0,0.52734375,0.064453125t0.36328125,0.322265625q0.1171875,0.69140625,0.12890625,1.5t0.08203125,1.5234375q0.26953125-0.52734375,0.69140625-1.13671875t0.9609375-1.125t1.171875-0.85546875t1.2890625-0.33984375q0.046875,0,0.17578125,0.03515625t0.240234375,0.099609375t0.134765625,0.146484375t-0.12890625,0.15234375q-0.046875,0.140625-0.19921875,0.169921875t-0.26953125,0.029296875q-0.0703125,0-0.22265625-0.05859375q-0.8671875,0.45703125-1.4765625,1.2421875t-0.99609375,1.740234375t-0.5625,2.015625t-0.17578125,2.068359375q0,0.50390625-0.228515625,0.609375t-0.732421875,0.10546875q-0.26953125,0-0.568359375-0.05859375t-0.416015625-0.375q-0.2109375-0.66796875-0.345703125-1.53515625t-0.205078125-1.787109375t-0.099609375-1.810546875t-0.029296875-1.60546875z M44.1798046875,45.1875l0-0.33984375q0-0.421875,0.0234375-0.796875q0.0234375-0.52734375,0.0234375-0.8671875q0-0.1875,0.0234375-0.427734375t0.1171875-0.380859375q0.1171875-0.1171875,0.275390625-0.240234375t0.345703125-0.123046875q0.59765625,0,0.9375,0.134765625t0.36328125,0.556640625l0.046875,0.36328125q0.2109375-0.50390625,0.5625-1.248046875t0.814453125-1.41796875t1.04296875-1.1484375t1.224609375-0.474609375q0.59765625,0,0.984375,0.5625t0.615234375,1.435546875t0.322265625,1.9453125t0.12890625,2.103515625t0.046875,1.880859375t0.08203125,1.283203125q0.046875,0.36328125,0.158203125,0.767578125t0.111328125,0.744140625q0,0.09375-0.134765625,0.181640625t-0.287109375,0.146484375t-0.310546875,0.09375t-0.228515625,0.03515625q-0.45703125,0-0.650390625-0.685546875t-0.240234375-1.716796875t-0.046875-2.232421875t-0.08203125-2.232421875t-0.333984375-1.716796875t-0.802734375-0.708984375q-0.50390625,0-1.04296875,0.650390625t-0.92578125,1.728515625q-0.375,1.078125-0.515625,2.44921875q-0.046875,0.43359375-0.046875,0.8671875q0,0.94921875,0.19921875,1.8984375q0.0234375,0.1640625-0.134765625,0.24609375t-0.392578125,0.12890625t-0.474609375,0.05859375t-0.369140625,0.01171875q-0.45703125,0-0.732421875-0.322265625t-0.427734375-0.826171875t-0.205078125-1.130859375t-0.064453125-1.236328125z M54.82828125,42.515625q0-0.33984375,0.193359375-0.4453125t0.486328125-0.10546875q0.48046875,0,0.732421875,0.181640625t0.251953125,0.638671875q0,0.55078125,0.08203125,1.376953125t0.240234375,1.60546875t0.375,1.341796875t0.451171875,0.5625q0.43359375,0,0.767578125-0.66796875t0.5859375-1.640625t0.43359375-2.091796875t0.251953125-1.998046875q0.046875-0.48046875,0.228515625-0.697265625t0.662109375-0.216796875q0.55078125,0,0.802734375,0.45703125t0.322265625,1.125q0.05859375,0.57421875,0.05859375,1.1953125l0,0.19921875l0,0.46875q0,0.4453125,0.01171875,0.796875l0.33984375,7.18359375l0.046875,1.1953125q0.0234375,0.1640625,0.03515625,0.310546875t0.01171875,0.310546875q0,0.66796875-0.287109375,0.861328125t-0.931640625,0.193359375q-0.140625,0-0.357421875-0.0234375t-0.421875-0.09375t-0.3515625-0.193359375t-0.146484375-0.310546875l0.046875-0.1171875q0.05859375-0.703125,0.05859375-1.4765625l0-0.24609375q-0.01171875-0.9140625-0.05859375-1.8515625t-0.10546875-1.875t-0.05859375-1.8046875q-0.1640625,0.36328125-0.380859375,0.75t-0.50390625,0.697265625t-0.650390625,0.515625t-0.8203125,0.205078125q-0.66796875,0-1.1015625-0.3515625t-0.673828125-0.9140625t-0.345703125-1.259765625t-0.140625-1.39453125t-0.046875-1.330078125t-0.09375-1.06640625z M69.164296875,47.2734375q0-0.41015625,0.28125-0.521484375t0.609375-0.111328125q0.57421875,0,0.97265625,0.515625t0.755859375,1.130859375t0.708984375,1.130859375t0.83203125,0.515625q0.36328125,0,0.662109375-0.181640625t0.515625-0.45703125t0.333984375-0.62109375t0.1171875-0.685546875q0-0.890625-0.357421875-1.83984375t-0.9140625-1.95703125t-1.177734375-2.0625t-1.171875-2.14453125t-0.9140625-2.220703125t-0.36328125-2.279296875q0-1.72265625,1.03125-2.671875t2.71875-0.94921875q0.57421875,0,1.16015625,0.1640625t1.078125,0.4921875t0.802734375,0.80859375t0.310546875,1.125q0,0.2109375-0.310546875,0.275390625t-0.451171875,0.064453125q-0.2109375,0-0.45703125-0.052734375t-0.31640625-0.287109375t-0.19921875-0.5390625t-0.322265625-0.568359375t-0.45703125-0.45703125t-0.580078125-0.193359375q-0.52734375,0-0.896484375,0.216796875t-0.59765625,0.580078125t-0.33984375,0.814453125t-0.111328125,0.931640625q0,1.125,0.38671875,2.267578125t0.9609375,2.2734375t1.248046875,2.232421875t1.248046875,2.14453125t0.9609375,2.0390625t0.38671875,1.88671875q0,0.796875-0.375,1.34765625t-0.94921875,0.896484375t-1.271484375,0.50390625t-1.365234375,0.158203125q-0.71484375,0-1.46484375-0.287109375t-1.34765625-0.791015625t-0.984375-1.177734375t-0.38671875-1.458984375z M79.7073046875,46.40625l0-1.1015625q0-0.59765625,0.029296875-1.693359375t0.076171875-2.40234375t0.12890625-2.724609375t0.1875-2.677734375t0.251953125-2.255859375t0.333984375-1.4765625q0.1171875-0.26953125,0.38671875-0.33984375t0.52734375-0.0703125q0.41015625,0,0.720703125,0.181640625t0.310546875,0.662109375l-0.2109375,0.234375q-0.41015625,2.70703125-0.52734375,5.4375t-0.1640625,5.4609375q0.29296875-0.45703125,0.662109375-0.896484375t0.8203125-0.779296875t0.97265625-0.544921875t1.142578125-0.205078125q0.796875,0,1.318359375,0.48046875t0.861328125,1.248046875t0.50390625,1.716796875t0.251953125,1.8984375t0.123046875,1.798828125t0.10546875,1.412109375q-0.22265625,0.3046875-0.65625,0.3046875l-0.03515625,0q-0.1875,0-0.41015625-0.046875t-0.29296875-0.234375l0.0234375,0.0234375q-0.1640625-0.36328125-0.22265625-1.048828125t-0.09375-1.51171875t-0.123046875-1.693359375t-0.263671875-1.5703125t-0.515625-1.16015625t-0.9140625-0.48046875l-0.0703125,0q-0.69140625,0-1.16015625,0.421875q-0.4921875,0.4453125-0.796875,1.171875t-0.46875,1.6171875t-0.251953125,1.716796875t-0.134765625,1.5t-0.1171875,0.990234375q-0.0703125,0.26953125-0.416015625,0.357421875t-0.591796875,0.087890625q-0.57421875,0-0.9375-0.328125q-0.26953125-0.64453125-0.31640625-1.60546875t-0.046875-1.875z M90.68390625,45.3515625q0-0.66796875,0.169921875-1.376953125t0.5390625-1.27734375t0.931640625-0.92578125t1.359375-0.357421875q0.59765625,0,1.259765625,0.205078125t1.212890625,0.5859375t0.896484375,0.931640625t0.345703125,1.23046875q0,0.8203125-0.298828125,1.55859375t-0.837890625,1.318359375t-1.259765625,0.9140625t-1.564453125,0.333984375q-0.69140625,0-1.20703125-0.251953125t-0.861328125-0.673828125t-0.515625-0.99609375t-0.169921875-1.21875z M92.4065625,45.328125q0,0.2109375,0.064453125,0.62109375t0.193359375,0.802734375t0.333984375,0.6796875t0.498046875,0.263671875q0.62109375-0.0703125,1.025390625-0.404296875t0.65625-0.814453125t0.3515625-1.04296875t0.099609375-1.06640625q0-0.64453125-0.251953125-1.078125t-0.826171875-0.703125q0,0.0234375,0.0234375,0.0234375t0.0234375-0.0234375l-0.29296875-0.0703125q-0.1171875-0.046875-0.287109375-0.10546875t-0.333984375-0.2578125q-0.45703125,0.1640625-0.708984375,0.421875t-0.380859375,0.626953125t-0.158203125,0.884765625t-0.029296875,1.2421875z M99.5628515625,40.88671875q0-0.55078125,0.216796875-0.814453125t0.791015625-0.263671875q0.33984375,0,0.638671875,0.140625t0.298828125,0.59765625q0.046875,0.66796875,0.046875,1.400390625t0.12890625,1.388671875q0.29296875-0.48046875,0.662109375-0.9609375t0.814453125-0.85546875t0.97265625-0.603515625t1.1484375-0.228515625q0.84375,0,1.4296875,0.3515625t0.966796875,0.9140625t0.55078125,1.271484375t0.169921875,1.423828125q0,1.1015625-0.333984375,1.798828125t-0.884765625,1.095703125t-1.248046875,0.5390625t-1.400390625,0.140625q-0.62109375,0-1.16015625-0.240234375t-0.75-0.908203125q0-0.1875,0.275390625-0.234375t0.392578125-0.046875q0.38671875,0,0.57421875,0.2109375q0.140625,0.1640625,0.310546875,0.333984375t0.357421875,0.169921875q0.36328125,0,0.76171875-0.205078125t0.732421875-0.5390625t0.5625-0.791015625t0.228515625-0.9375q0-0.41015625-0.0703125-1.01953125t-0.240234375-1.171875t-0.46875-0.97265625t-0.755859375-0.41015625q-0.69140625,0-1.248046875,0.6328125t-0.92578125,1.5234375t-0.57421875,1.8515625t-0.205078125,1.60546875t0.08203125,1.62890625t0.169921875,2.044921875t0.169921875,2.044921875t0.08203125,1.62890625q0,0.1640625-0.134765625,0.263671875t-0.322265625,0.158203125t-0.380859375,0.0703125t-0.287109375,0.01171875q-0.31640625,0-0.662109375-0.0703125t-0.474609375-0.43359375q-0.1640625-0.57421875-0.3046875-1.634765625t-0.251953125-2.34375t-0.193359375-2.6953125t-0.140625-2.724609375t-0.087890625-2.40234375t-0.029296875-1.734375z"/><path fill="#" d=""/></svg>
